<svg width="90" height="90" viewBox="0 0 90 90" fill="none" xmlns="http://www.w3.org/2000/svg">
<path d="M30.0939 27.337H33.2171C33.1846 27.6905 33.1679 28.0453 33.1669 28.4003C33.1669 34.9256 38.4757 40.2342 45.001 40.2342C51.5262 40.2342 56.8348 34.9256 56.8348 28.4003C56.8339 28.0453 56.8171 27.6905 56.7846 27.337H59.9062C60.2022 27.337 60.486 27.2195 60.6953 27.0102C60.9046 26.8009 61.0221 26.5171 61.0221 26.2212V21.0275C61.0221 20.7315 60.9046 20.4477 60.6953 20.2384C60.486 20.0292 60.2022 19.9116 59.9062 19.9116H58.3698C57.295 15.4834 54.0746 11.8652 49.8076 10.2748V9.62898C49.8076 7.42127 48.0115 5.625 45.8038 5.625H44.1964C41.9887 5.625 40.1926 7.42127 40.1926 9.62898V10.2746C35.9179 11.8663 32.7069 15.4772 31.6315 19.9116H30.0941C29.7981 19.9116 29.5143 20.0292 29.305 20.2384C29.0958 20.4477 28.9782 20.7315 28.9782 21.0275V26.2212C28.9782 26.3677 29.007 26.5128 29.063 26.6482C29.1191 26.7836 29.2013 26.9066 29.3049 27.0102C29.4085 27.1139 29.5315 27.1961 29.6669 27.2521C29.8023 27.3082 29.9474 27.3371 30.0939 27.337ZM54.603 28.4003C54.603 33.6949 50.2955 38.0024 45.001 38.0024C39.7064 38.0024 35.3987 33.6949 35.3987 28.4003C35.3987 28.0445 35.4199 27.6893 35.4587 27.337H54.5429C54.5818 27.6895 54.603 28.0447 54.603 28.4003ZM40.1924 12.6891V16.3106C40.1924 16.6066 40.31 16.8904 40.5193 17.0997C40.7285 17.3089 41.0124 17.4265 41.3083 17.4265C41.6043 17.4265 41.8881 17.3089 42.0974 17.0997C42.3066 16.8904 42.4242 16.6066 42.4242 16.3106V9.62913C42.4242 8.65193 43.2192 7.85694 44.1962 7.85694H45.8036C46.7806 7.85694 47.5756 8.65193 47.5756 9.62913V16.3106C47.5756 16.6066 47.6932 16.8904 47.9025 17.0997C48.1117 17.3089 48.3956 17.4265 48.6915 17.4265C48.9875 17.4265 49.2713 17.3089 49.4806 17.0997C49.6898 16.8904 49.8074 16.6066 49.8074 16.3106V12.6895C52.8283 14.0755 55.1194 16.7134 56.059 19.9116H33.9402C34.8795 16.7088 37.1666 14.075 40.1924 12.6891ZM31.2098 22.1435H58.7902V25.1054H31.2098V22.1435ZM84.375 50.3956C84.375 50.6916 84.2574 50.9754 84.0482 51.1847C83.8389 51.394 83.5551 51.5115 83.2591 51.5115H80.5724C80.2764 51.5115 79.9926 51.394 79.7833 51.1847C79.574 50.9754 79.4565 50.6916 79.4565 50.3956C79.4565 50.0997 79.574 49.8159 79.7833 49.6066C79.9926 49.3973 80.2764 49.2798 80.5724 49.2798H83.2591C83.5551 49.2798 83.8389 49.3973 84.0482 49.6066C84.2574 49.8159 84.375 50.0997 84.375 50.3956ZM66.1847 37.1237V34.437C66.1847 34.141 66.3023 33.8572 66.5115 33.6479C66.7208 33.4387 67.0046 33.3211 67.3006 33.3211C67.5965 33.3211 67.8804 33.4387 68.0896 33.6479C68.2989 33.8572 68.4165 34.141 68.4165 34.437V37.1237C68.4165 37.4197 68.2989 37.7035 68.0896 37.9128C67.8804 38.122 67.5965 38.2396 67.3006 38.2396C67.0046 38.2396 66.7208 38.122 66.5115 37.9128C66.3023 37.7035 66.1847 37.4197 66.1847 37.1237ZM58.705 58.991C58.8087 59.0946 58.8909 59.2177 58.947 59.353C59.003 59.4884 59.0319 59.6335 59.0319 59.7801C59.0319 59.9266 59.003 60.0717 58.947 60.2071C58.8909 60.3424 58.8087 60.4655 58.705 60.5691L56.8052 62.4689C56.7016 62.5727 56.5786 62.655 56.4432 62.7111C56.3078 62.7672 56.1626 62.7959 56.0161 62.7957C55.7954 62.7958 55.5796 62.7304 55.396 62.6078C55.2125 62.4852 55.0695 62.3109 54.985 62.107C54.9005 61.9031 54.8784 61.6787 54.9215 61.4623C54.9646 61.2458 55.0709 61.047 55.227 60.8909L57.1269 58.991C57.3362 58.7818 57.62 58.6643 57.916 58.6643C58.2119 58.6643 58.4957 58.7818 58.705 58.991ZM75.896 41.8001C75.7924 41.6965 75.7102 41.5735 75.6541 41.4381C75.598 41.3027 75.5691 41.1576 75.5691 41.0111C75.5691 40.8646 75.598 40.7194 75.6541 40.5841C75.7102 40.4487 75.7924 40.3257 75.896 40.2221L77.7959 38.3222C78.0058 38.1164 78.2886 38.0017 78.5826 38.0032C78.8766 38.0047 79.1581 38.1221 79.366 38.33C79.574 38.5379 79.6914 38.8195 79.6929 39.1135C79.6943 39.4075 79.5797 39.6902 79.3739 39.9002L77.474 41.8001C77.2561 42.018 76.9706 42.1269 76.6849 42.1269C76.3993 42.1269 76.1139 42.0179 75.896 41.8001ZM55.1447 50.3955C55.1447 50.6914 55.0272 50.9753 54.8179 51.1845C54.6086 51.3938 54.3248 51.5114 54.0288 51.5114H51.3421C51.0461 51.5114 50.7623 51.3938 50.553 51.1845C50.3438 50.9753 50.2262 50.6914 50.2262 50.3955C50.2262 50.0995 50.3438 49.8157 50.553 49.6064C50.7623 49.3972 51.0461 49.2796 51.3421 49.2796H54.0288C54.3248 49.2796 54.6086 49.3972 54.8179 49.6064C55.0272 49.8157 55.1447 50.0995 55.1447 50.3955ZM56.8052 38.322L58.705 40.2219C58.8611 40.378 58.9675 40.5768 59.0105 40.7933C59.0536 41.0097 59.0315 41.2341 58.947 41.438C58.8626 41.6419 58.7195 41.8162 58.536 41.9388C58.3524 42.0614 58.1367 42.1268 57.916 42.1267C57.7694 42.1269 57.6242 42.0981 57.4888 42.0421C57.3534 41.986 57.2304 41.9037 57.1269 41.7999L55.227 39.9001C54.7911 39.4644 54.7911 38.7577 55.227 38.322C55.6628 37.8864 56.3695 37.8864 56.8052 38.322ZM79.3739 60.8909C79.53 61.047 79.6363 61.2458 79.6794 61.4623C79.7225 61.6787 79.7004 61.9031 79.6159 62.107C79.5314 62.3109 79.3884 62.4852 79.2048 62.6078C79.0213 62.7304 78.8055 62.7958 78.5848 62.7957C78.4382 62.7959 78.2931 62.7671 78.1577 62.7111C78.0222 62.655 77.8992 62.5727 77.7957 62.4689L75.8958 60.5691C75.69 60.3591 75.5754 60.0764 75.5769 59.7824C75.5783 59.4883 75.6958 59.2068 75.9037 58.9989C76.1116 58.791 76.3931 58.6735 76.6871 58.6721C76.9812 58.6706 77.2639 58.7852 77.4739 58.991L79.3739 60.8909ZM76.7734 50.3956C76.7734 45.1723 72.5238 40.9227 67.3004 40.9227C62.8952 40.9227 59.1828 43.9453 58.1278 48.0255C54.2153 45.5041 49.7138 44.179 45.0008 44.179C31.5982 44.179 20.6943 55.0821 20.6943 68.4838C20.6943 72.9837 25.3053 76.409 33.6779 78.1287C37.1672 78.8454 41.0772 79.2068 44.9986 79.2068C48.2807 79.2068 51.571 78.9535 54.6274 78.4434C59.7345 77.5912 63.6789 76.1105 66.1845 74.1517V82.1429H11.9197V71.4987C14.2406 70.9869 15.9827 68.9148 15.9827 66.4423V44.5073C15.9827 44.2113 15.8651 43.9275 15.6559 43.7182C15.4466 43.5089 15.1628 43.3914 14.8668 43.3914H13.4265V26.4424L15.1863 24.2805C15.2892 24.154 15.3632 24.0066 15.403 23.8485C15.4427 23.6904 15.4474 23.5255 15.4166 23.3654L14.0732 16.3745C14.0243 16.1198 13.8881 15.8901 13.6881 15.7248C13.4881 15.5596 13.2369 15.4692 12.9774 15.4692H8.63025C8.37085 15.4692 8.11955 15.5596 7.91956 15.7248C7.71958 15.8901 7.5834 16.1198 7.53445 16.3745L6.19108 23.3654C6.16032 23.5255 6.165 23.6904 6.2048 23.8484C6.24459 24.0065 6.31854 24.1539 6.42143 24.2803L8.18119 26.4424V43.3914H6.74089C6.44494 43.3914 6.16111 43.5089 5.95184 43.7182C5.74257 43.9275 5.625 44.2113 5.625 44.5073V66.4426C5.625 68.9151 7.36706 70.9872 9.68796 71.4991V83.2591C9.68796 83.5551 9.80552 83.8389 10.0148 84.0482C10.2241 84.2574 10.5079 84.375 10.8038 84.375H67.3006C67.5965 84.375 67.8804 84.2574 68.0896 84.0482C68.2989 83.8389 68.4165 83.5551 68.4165 83.2591V71.695C68.431 71.6704 68.4468 71.6462 68.461 71.6215H69.1949C70.5289 71.6215 71.6142 70.5362 71.6142 69.2022V68.933H71.9185C73.2955 68.933 74.4158 67.8126 74.4158 66.4355V63.4536C74.4158 62.4796 73.8541 61.6363 73.0388 61.2247C73.3978 58.2655 74.247 56.9506 75.0709 55.6754C75.9078 54.3797 76.7734 53.0401 76.7734 50.3956ZM10.1624 25.3414L8.48088 23.2754L9.55198 17.701H12.0556L13.1268 23.2754L11.4452 25.3412C11.2832 25.5402 11.1947 25.789 11.1947 26.0456V43.3914H10.413V26.0456C10.413 25.789 10.3243 25.5403 10.1624 25.3414ZM13.7509 45.6231V46.5689H7.85678V45.6231H13.7509ZM7.85678 66.4425V48.8007H13.7509V66.4425C13.7509 68.0674 12.4289 69.3894 10.8038 69.3894C9.17879 69.3894 7.85678 68.0675 7.85678 66.4425ZM54.2601 76.2422C47.8085 77.3187 40.282 77.2068 34.1269 75.9427C27.0087 74.4806 22.9261 71.7619 22.9261 68.4838C22.9261 56.3126 32.8288 46.4108 45.0008 46.4108C49.6517 46.4108 54.0738 47.8339 57.8302 50.5251C57.8586 53.0824 58.7073 54.4017 59.5303 55.6754C60.3542 56.9504 61.2034 58.2654 61.5624 61.2246C60.747 61.6362 60.1852 62.4795 60.1852 63.4535V66.4353C60.1852 67.8125 61.3056 68.9328 62.6827 68.9328H62.9869V69.2021C62.9869 70.536 64.0722 71.6213 65.4061 71.6213H65.6856C63.7077 73.6935 59.6955 75.3352 54.2601 76.2422ZM72.1839 66.4353C72.1829 66.5055 72.1547 66.5725 72.1051 66.6221C72.0555 66.6717 71.9885 66.7001 71.9183 66.701H70.4981C70.2021 66.701 69.9183 66.8186 69.709 67.0279C69.4998 67.2371 69.3822 67.521 69.3822 67.8169V69.2021C69.3822 69.3019 69.2947 69.3895 69.1947 69.3895H65.4061C65.3063 69.3895 65.2187 69.302 65.2187 69.2021V67.8169C65.2187 67.521 65.1011 67.2371 64.8918 67.0279C64.6826 66.8186 64.3987 66.701 64.1028 66.701H62.6827C62.6125 66.7001 62.5455 66.6718 62.4958 66.6222C62.4462 66.5726 62.4179 66.5055 62.417 66.4353V63.4535C62.4179 63.3833 62.4462 63.3163 62.4959 63.2666C62.5455 63.217 62.6125 63.1887 62.6827 63.1877H71.9182C72.0621 63.1877 72.1837 63.3094 72.1837 63.4535V66.4353H72.1839ZM73.1962 54.464C72.3208 55.8187 71.2502 57.4774 70.8241 60.9561H68.4165V52.5952L71.4423 50.8484C71.5702 50.7756 71.6825 50.6783 71.7727 50.562C71.8628 50.4457 71.9291 50.3127 71.9677 50.1707C72.0062 50.0287 72.0163 49.8804 71.9974 49.7345C71.9784 49.5886 71.9307 49.4478 71.8571 49.3204C71.7836 49.1929 71.6855 49.0813 71.5686 48.9919C71.4517 48.9025 71.3183 48.8371 71.176 48.7995C71.0337 48.7619 70.8854 48.7528 70.7396 48.7727C70.5938 48.7927 70.4534 48.8412 70.3264 48.9157L67.3006 50.6625L64.2749 48.9157C64.148 48.8412 64.0076 48.7927 63.8618 48.7727C63.7159 48.7528 63.5676 48.7619 63.4254 48.7995C63.2831 48.8371 63.1497 48.9025 63.0328 48.9919C62.9158 49.0813 62.8178 49.1929 62.7442 49.3204C62.6706 49.4478 62.623 49.5886 62.604 49.7345C62.585 49.8804 62.5951 50.0287 62.6337 50.1707C62.6722 50.3127 62.7385 50.4457 62.8287 50.562C62.9188 50.6783 63.0311 50.7756 63.159 50.8484L66.1847 52.5952V60.9561H63.7771C63.351 57.4776 62.2804 55.8189 61.405 54.4642C60.6239 53.2554 60.0596 52.3819 60.0596 50.3956C60.0596 46.4028 63.3079 43.1545 67.3008 43.1545C71.2936 43.1545 74.5419 46.4028 74.5419 50.3956C74.5416 52.3819 73.9773 53.2552 73.1962 54.464ZM10.8038 66.3626C10.5079 66.3626 10.2241 66.245 10.0148 66.0358C9.80552 65.8265 9.68796 65.5427 9.68796 65.2467V52.9434C9.68796 52.7968 9.71682 52.6517 9.7729 52.5164C9.82898 52.381 9.91117 52.2579 10.0148 52.1543C10.1184 52.0507 10.2414 51.9685 10.3768 51.9124C10.5122 51.8564 10.6573 51.8275 10.8038 51.8275C10.9504 51.8275 11.0955 51.8564 11.2309 51.9124C11.3663 51.9685 11.4893 52.0507 11.5929 52.1543C11.6965 52.2579 11.7787 52.381 11.8348 52.5164C11.8909 52.6517 11.9197 52.7968 11.9197 52.9434V65.2467C11.9197 65.5427 11.8022 65.8265 11.5929 66.0358C11.3836 66.245 11.0998 66.3626 10.8038 66.3626Z" fill="#2E4A61"/>
</svg>
